<svg xmlns="http://www.w3.org/2000/svg" width="50" height="100" viewBox="0 0 50 100">
  <metadata><?xpacket begin="﻿" id="W5M0MpCehiHzreSzNTczkc9d"?>
<x:xmpmeta xmlns:x="adobe:ns:meta/" x:xmptk="Adobe XMP Core 5.6-c138 79.159824, 2016/09/14-01:09:01        ">
   <rdf:RDF xmlns:rdf="http://www.w3.org/1999/02/22-rdf-syntax-ns#">
      <rdf:Description rdf:about=""/>
   </rdf:RDF>
</x:xmpmeta>
                                                                                                    
                                                                                                    
                                                                                                    
                                                                                                    
                                                                                                    
                                                                                                    
                                                                                                    
                                                                                                    
                                                                                                    
                                                                                                    
                                                                                                    
                                                                                                    
                                                                                                    
                                                                                                    
                                                                                                    
                                                                                                    
                                                                                                    
                                                                                                    
                                                                                                    
                                                                                                    
                           
<?xpacket end="w"?></metadata>
<defs>
    <style>
      .cls-1 {
        fill: #ff8c00;
        fill-rule: evenodd;
      }
    </style>
  </defs>
  <path id="note" class="cls-1" d="M26.381,36.411a1.721,1.721,0,0,1,.87.24,8.21,8.21,0,0,1,1.055.595,23.276,23.276,0,0,1,2.005,1.525l0.86,0.74c0.337,0.269.647,0.577,0.99,0.84,0.806,0.619,1.55,1.3,2.34,1.93l1.15,1,1,0.91,0.92,0.825c0.3,0.238.542,0.534,0.835,0.77l0.3,0.29a3.489,3.489,0,0,1,.5.51c0.185,0.229.413,0.426,0.6,0.66,0.493,0.632.993,1.253,1.46,1.915A23.278,23.278,0,0,1,43.957,54a18.559,18.559,0,0,1,.755,2.635c0.111,0.473.144,0.976,0.225,1.475V59.86a11.717,11.717,0,0,1-.035,1.71l-0.05.67-0.05.58c-0.078.466-.085,0.936-0.175,1.385-0.1.5-.163,1-0.285,1.485a15.945,15.945,0,0,1-1.7,4.53,5.026,5.026,0,0,1-2.26,2.26,6.913,6.913,0,0,1-1.175.305c-0.217.043-.448,0.033-0.68,0.07h-0.28l-0.285,0c-0.235-.038-0.468-0.048-0.675-0.1-1.374-.346-1.783-0.977-2.12-2.35a4.06,4.06,0,0,1-.12-1.41,7.776,7.776,0,0,1,.14-0.79c0.186-.673.412-1.293,0.585-1.975l0.2-1.055,0.48-2.29c0.128-.581.175-1.181,0.28-1.8l0.08-.9q0.033-.585.065-1.17,0-.292-0.005-0.585L36.861,58c-0.051-.318-0.058-0.637-0.125-0.925a6.912,6.912,0,0,0-.275-0.985,7.966,7.966,0,0,0-2.42-3.155,4.235,4.235,0,0,0-1.455-.835,1.379,1.379,0,0,0-1.015.08,1.237,1.237,0,0,0-.515.8l-0.04.325a1.42,1.42,0,0,0-.01.4q0,0.193.01,0.385l0.025,0.42a2.953,2.953,0,0,1,0,.8q0,0.15-.01.3l-0.015.65V56.61q0,0.292.01,0.585l0.055,1.475,0.03,0.965q0.005,0.227.01,0.455v0.25q0,0.295-.01.59-0.012.827-.025,1.655,0,0.325,0,.65l-0.06,2.75L30.936,68.17l-0.4,7.585-0.15,3.11-0.03.94-0.045,1.5-0.015.62q0,0.19,0,.38,0,0.273.01,0.545l0.085,1.76,0.1,1.61,0.04,0.855v0.2q0,0.145,0,.29V88.38l-0.05.945-0.085.765a13.564,13.564,0,0,1-.325,1.5,9.468,9.468,0,0,1-1.675,3.01,10.333,10.333,0,0,1-1.815,1.78,17.171,17.171,0,0,1-4.3,2.49A15.978,15.978,0,0,1,16.22,100H14.26c-0.5-.08-1.007-0.07-1.485-0.165l-0.89-.155A14.126,14.126,0,0,1,9.9,99.115,7.291,7.291,0,0,1,5.415,93.98a12.35,12.35,0,0,1-.285-1.33l-0.055-.59c-0.025-.162.007-0.343-0.02-0.52V91.2l0.055-.64a10.763,10.763,0,0,1,.27-1.27,12.229,12.229,0,0,1,1.37-2.92,14.407,14.407,0,0,1,4.055-4.07c0.389-.274.808-0.5,1.225-0.745a12.227,12.227,0,0,1,1.255-.645,10.688,10.688,0,0,1,1.75-.66c0.4-.1.823-0.13,1.255-0.2l0.5-.045,0.825-.035,0.525,0a6.7,6.7,0,0,1,.98.03l0.475,0.05,2.165,0.375V80.4q0.055-1.155.11-2.31l0.06-1.285q0.122-2.26.245-4.52l0.26-4.515,0.06-1.38q0.02-.942.04-1.885l0.09-4.02,0.015-.67q0-.222.01-0.445V58.245q0-.887,0-1.775,0-3.452-.01-6.9L22.621,42.35V41.035q0-.262,0-0.525a4.4,4.4,0,0,1,.255-1.725,3.158,3.158,0,0,1,.425-0.6,3.246,3.246,0,0,1,.52-0.63,5.109,5.109,0,0,1,1.155-.635c0.25-.11.495-0.242,0.755-0.345l0.42-.13Z"/>
</svg>
