<svg version="1.1" width="136" height="216" viewBox="-1 -1 136 216" xmlns="http://www.w3.org/2000/svg" xmlns:xlink="http://www.w3.org/1999/xlink">
  <!-- Exported by Scratch - http://scratch.mit.edu/ -->
  <g id="ID0.8526454996317625" transform="matrix(1, 0, 0, 1, 3, 0)">
    <g id="ID0.1391333038918674">
      <path id="ID0.5824914928525686" fill="#000000" stroke="none" d="M 1062 2183 C 1045.312 2175.935 1027.799 2166.432 1017.500 2151.250 C 1002.342 2128.462 990.470 2127.280 988.750 2073.750 L 990 1430 L 985 1206.500 C 983.309 1132.072 970.477 951.935 965 825 L 960 720 L 887.500 732.500 C 861.691 736.781 760.779 739.926 703 716 C 621.294 682.145 542.323 630.889 486.250 562.500 C 438.061 503.744 398.367 426.648 397.500 350 C 396.884 276.105 424.966 198.106 475 145 C 522.262 94.914 595.293 74.530 662.500 65 C 749.392 52.689 838.791 57.339 922.500 80 C 1001.211 101.303 1076.236 141.718 1137.500 195 C 1188.740 239.547 1230.644 299.582 1245 365 C 1268.166 470.615 1243.108 581.968 1247.500 690 C 1251.435 848.853 1263.522 1007.568 1270 1166.250 C 1273.178 1244.040 1273.590 1322.143 1275 1400 C 1274.422 1456.614 1268.721 1513.377 1272.500 1570 C 1274.636 1603.619 1260.880 1649.842 1288 1670 C 1311.412 1687.386 1350.282 1665.783 1372.500 1646.900 C 1409.355 1615.575 1442.416 1577.056 1457.500 1531.900 C 1473.623 1483.522 1469.330 1431.716 1465 1381.900 C 1459.791 1321.845 1443.102 1262.074 1432.500 1201.900 C 1423.953 1162.163 1403.005 1123.156 1407.500 1081.900 C 1411.190 1047.854 1421.231 1006.474 1452.500 989.400 C 1491.242 968.279 1543.402 972.187 1585 986.900 C 1620.442 999.454 1645.207 1034.787 1665 1066.900 C 1688.555 1104.930 1700.819 1146.404 1712.500 1186.900 C 1724.577 1231.440 1732.395 1277.762 1736 1321 C 1740.658 1376.884 1746.302 1434.160 1737.500 1489.400 C 1729.952 1546.550 1712.739 1603.271 1687.500 1654.400 C 1655.297 1719.613 1613.620 1781.077 1567.500 1836.900 C 1530.292 1881.941 1483.407 1919.351 1440 1960 C 1397.657 1997.060 1355.118 2034.525 1310 2070 C 1253.154 2115.831 1200.373 2171.458 1133 2200 C 1110.704 2209.444 1084.386 2192.477 1062 2183 Z " transform="matrix(0.10000000149011612, 0, 0, -0.10000000149011612, -42, 221)"/>
    </g>
  </g>
</svg>