<svg xmlns="http://www.w3.org/2000/svg" width="39.969" height="64" viewBox="0 0 39.969 64">
  <metadata><?xpacket begin="﻿" id="W5M0MpCehiHzreSzNTczkc9d"?>
<x:xmpmeta xmlns:x="adobe:ns:meta/" x:xmptk="Adobe XMP Core 5.6-c138 79.159824, 2016/09/14-01:09:01        ">
   <rdf:RDF xmlns:rdf="http://www.w3.org/1999/02/22-rdf-syntax-ns#">
      <rdf:Description rdf:about=""/>
   </rdf:RDF>
</x:xmpmeta>
                                                                                                    
                                                                                                    
                                                                                                    
                                                                                                    
                                                                                                    
                                                                                                    
                                                                                                    
                                                                                                    
                                                                                                    
                                                                                                    
                                                                                                    
                                                                                                    
                                                                                                    
                                                                                                    
                                                                                                    
                                                                                                    
                                                                                                    
                                                                                                    
                                                                                                    
                                                                                                    
                           
<?xpacket end="w"?></metadata>
<defs>
    <style>
      .cls-1 {
        fill: #ff8c00;
        fill-rule: evenodd;
      }
    </style>
  </defs>
  <path id="note" class="cls-1" d="M23.632,100a1.725,1.725,0,0,1-.872-0.242,8.218,8.218,0,0,1-1.057-.6,23.334,23.334,0,0,1-2.01-1.535l-0.862-.745c-0.338-.271-0.648-0.58-0.992-0.845-0.808-.623-1.554-1.308-2.346-1.942l-1.153-1.006-1-.916-0.922-.83c-0.3-.239-0.543-0.537-0.837-0.775l-0.3-.292a3.516,3.516,0,0,1-.5-0.513c-0.185-.23-0.414-0.429-0.6-0.664-0.494-.636-1-1.26-1.463-1.927a23.46,23.46,0,0,1-2.7-4.866,18.726,18.726,0,0,1-.757-2.652c-0.111-.476-0.144-0.982-0.226-1.484V76.4a11.832,11.832,0,0,1,.035-1.721L5.117,74l0.05-.584c0.078-.469.086-0.942,0.175-1.394,0.1-.505.163-1.011,0.286-1.495a16.087,16.087,0,0,1,1.7-4.559A5.048,5.048,0,0,1,9.593,63.7a6.9,6.9,0,0,1,1.178-.307c0.218-.044.449-0.033,0.682-0.071h0.281l0.286,0.005c0.236,0.038.469,0.048,0.677,0.1,1.377,0.348,1.787.983,2.125,2.365a4.1,4.1,0,0,1,.12,1.419,7.866,7.866,0,0,1-.14.8c-0.186.677-.413,1.3-0.586,1.988l-0.2,1.062-0.481,2.3c-0.128.585-.176,1.188-0.281,1.806l-0.08.906q-0.033.589-.065,1.177,0,0.294,0,.589,0.008,0.216.015,0.433c0.051,0.32.058,0.641,0.125,0.931a6.991,6.991,0,0,0,.276.991,8.013,8.013,0,0,0,2.426,3.175,4.24,4.24,0,0,0,1.458.84,1.377,1.377,0,0,0,1.017-.081,1.245,1.245,0,0,0,.516-0.81l0.04-.327a1.438,1.438,0,0,0,.01-0.4q0-.194-0.01-0.388l-0.025-.423a2.983,2.983,0,0,1,0-.81q0-.151.01-0.3l0.015-.654V79.667q0-.294-0.01-0.589-0.028-.742-0.055-1.484-0.015-.486-0.03-0.971-0.005-.229-0.01-0.458V75.913q0-.3.01-0.594,0.012-.833.025-1.666L18.92,73q0.03-1.384.06-2.768l0.085-2.2q0.2-3.816.4-7.633l0.15-3.13q0.015-.473.03-0.946,0.023-.752.045-1.5l0.015-.624q0-.191,0-0.383,0-.274-0.01-0.548l-0.085-1.771-0.1-1.62-0.04-.86v-0.2q0-.146,0-0.292v-0.83l0.05-.951,0.085-.77a13.7,13.7,0,0,1,.326-1.509,9.54,9.54,0,0,1,1.679-3.029,10.38,10.38,0,0,1,1.819-1.791,17.2,17.2,0,0,1,4.31-2.506A15.961,15.961,0,0,1,33.816,36h1.965c0.5,0.081,1.009.071,1.489,0.166l0.892,0.156a14.129,14.129,0,0,1,1.99.569,7.329,7.329,0,0,1,4.5,5.168,12.48,12.48,0,0,1,.286,1.339l0.055,0.594c0.025,0.163-.007.345,0.02,0.523v0.347l-0.055.644a10.86,10.86,0,0,1-.271,1.278,12.33,12.33,0,0,1-1.373,2.939,14.47,14.47,0,0,1-4.065,4.1c-0.39.275-.81,0.5-1.228,0.75a12.221,12.221,0,0,1-1.258.649A10.679,10.679,0,0,1,35,55.881c-0.4.1-.825,0.131-1.258,0.206l-0.5.045-0.827.035-0.526,0a6.662,6.662,0,0,1-.982-0.03l-0.476-.05-2.17-.377v0.01l-0.11,2.325-0.06,1.293q-0.123,2.274-.246,4.549t-0.261,4.544l-0.06,1.389q-0.02.948-.04,1.9-0.045,2.023-.09,4.046-0.008.337-.015,0.674,0,0.224-.01.448v1.132q0,0.893,0,1.786,0,3.474.01,6.949,0.008,3.63.015,7.261v1.323q0,0.264,0,.528a4.453,4.453,0,0,1-.256,1.736,3.183,3.183,0,0,1-.426.6,3.261,3.261,0,0,1-.521.634,5.115,5.115,0,0,1-1.158.639c-0.251.111-.5,0.243-0.757,0.347l-0.421.131Z" transform="translate(-5.031 -36)"/>
</svg>
