<svg xmlns="http://www.w3.org/2000/svg" width="10000" height="7138" viewBox="0 0 10000 7138">
  <metadata><?xpacket begin="﻿" id="W5M0MpCehiHzreSzNTczkc9d"?>
<x:xmpmeta xmlns:x="adobe:ns:meta/" x:xmptk="Adobe XMP Core 5.6-c138 79.159824, 2016/09/14-01:09:01        ">
   <rdf:RDF xmlns:rdf="http://www.w3.org/1999/02/22-rdf-syntax-ns#">
      <rdf:Description rdf:about=""/>
   </rdf:RDF>
</x:xmpmeta>
                                                                                                    
                                                                                                    
                                                                                                    
                                                                                                    
                                                                                                    
                                                                                                    
                                                                                                    
                                                                                                    
                                                                                                    
                                                                                                    
                                                                                                    
                                                                                                    
                                                                                                    
                                                                                                    
                                                                                                    
                                                                                                    
                                                                                                    
                                                                                                    
                                                                                                    
                                                                                                    
                           
<?xpacket end="w"?></metadata>
<defs>
    <style>
      .cls-1 {
        fill: #7289da;
      }

      .cls-1, .cls-2 {
        fill-rule: evenodd;
      }

      .cls-2 {
        fill: #fff;
      }
    </style>
  </defs>
  <path id="Color_Fill_1" data-name="Color Fill 1" class="cls-1" d="M3573,0h61q30.495,37,61,74c7.34,9.345,20.08,17.8,24,30l-52,15-130,39c-120.19,38.024-239.15,73.659-353,118-116.77,45.479-232.1,85.031-345,133-306.34,130.161-597.73,275.815-866,444-123.71,77.561-240.97,158.82-355,245-32.81,24.79-63.2,51.72-95,77q-21.495,19.005-43,38c123.11-69.4,255.38-128.76,388-187q262.365-115.212,537-222c168.13-65.594,345.35-116.481,524-170,157.64-47.225,322.14-77.148,488-118,186.73-45.99,392.89-58.6,590-93l70-4,161-19c79.3-13.347,163.12-9.013,246-22l165-10,123-5,73-2,174-2,152,2,73,2,123,5,150,9c77.49,12.191,155.86,7.527,230,20,103.44,17.4,204.44,18.337,304,38,122.92,24.276,247.32,35.64,366,65l238,53c151.7,38.668,301.05,77.236,446,123,315.22,99.522,608.35,219.951,894,346,130.66,57.66,254.19,128.71,380,191-34.76-37.5-79.93-68.99-121-100-92.95-70.18-186.57-139.731-287-203-341.53-215.145-708.87-403.093-1109-562-127.76-50.74-259.38-100.022-393-142q-109.485-34.5-219-69,3.495-3.5,7-7L6365,0h61l62,3,137,12c143.7,24.857,282.64,36.432,415,70,122.5,31.069,242.14,60.387,358,97,331.38,104.725,637.84,242.87,912,407,113.68,68.055,223.96,136.3,330,211,33.48,23.586,66.38,47.081,99,71q14.505,10.5,29,21,22.995,45,46,90c29.22,50.27,55.04,104.74,79,159,42.85,97.02,93.11,193.47,136,292,49.37,113.41,94.13,227.58,143,343,141.51,334.23,255.41,689.99,368,1052,40.68,130.79,71.61,265.24,111,398,45.82,154.44,73.64,315.79,113,475,45.51,184.08,69.21,375.74,107,567q13.5,91.995,27,184c23.13,121.26,26.93,250,48,375q6.495,64.995,13,130,7.995,95.49,16,191,7.995,143.985,16,288,1.995,52.5,4,105,2.505,92.985,5,186v119q-13.995,19.5-28,39c-26.59,37.72-54.38,73.05-82,109-96.59,125.72-222.17,255.59-346,354-72.29,57.46-142.57,118.04-219,172-207.96,146.8-438.91,268.02-693,369-179.55,71.36-370.2,117.01-576,165-102.38,23.87-208.71,30.79-319,50-46.15,8.04-95.11,6.25-144,14-64.55,10.23-138.04,11.66-207,12q-72.495-86.49-145-173-210.48-256.47-421-513v-1c42.57-4,101.09-30.33,141-43,114.45-36.33,221.8-79.36,326-125a3000.986,3000.986,0,0,0,605-354q70.995-57.99,142-116,31.5-29.49,63-59a723.568,723.568,0,0,0,106-106q20.505-21.495,41-43c42.35-52.76,88.19-102.67,125-161l-159,101c-92.17,57.51-189.58,104.51-285,160q-74.985,38.49-150,77c-268.59,118.74-545.36,240.4-839,333-199.42,62.89-406.14,113.18-620,166-161.15,39.8-330.16,55.57-502,87q-104.985,11.505-210,23-120.495,8.505-241,17-48.495,1.995-97,4-70.995,1.005-142,2H5015q-85.485-1.995-171-4-78.99-3.495-158-7-54.99-4.005-110-8c-92.27-14.74-188.07-14.1-277-30-101.67-18.17-201.32-22.82-299-44l-244-48c-182.09-45.18-362.78-84.47-534-138q-105.495-33-211-66-132.48-48.495-265-97c-164.18-65.33-324.56-137.46-482-207-83.38-36.83-165.16-83.99-242-129-62.68-36.71-128.43-66.18-190-103q-70.5-44.49-141-89c20.63,38.54,51.85,71.43,78,105,49.49,63.53,113.91,140.89,176,191q24,23.505,48,47,57.495,49.5,115,99c179.85,140.13,376.16,275.44,597,373,102.75,45.39,207.53,88.07,316,130q83.49,27.495,167,55-52.995,66-106,132c-103.32,134.42-216,260.51-320,394q-73.5,87.99-147,176c-59.34.65-121.04-.4-176-9-49.16-7.69-98.49-5.2-145-13q-46.5-4.995-93-10c-96.26-17.74-193.72-26.78-284-49q-72.495-16.005-145-32c-146.82-42.94-288.72-81.57-423-135-256.29-101.97-486.934-228.94-696-378-71.338-50.86-136.359-108.96-204-163-124.632-99.57-243.628-226.07-341-353-29.365-38.28-58.739-76.04-86-117q-11-16.5-22-33,0.5-69,1-138v-56q4.5-118.995,9-238,7.5-132.99,15-266l16-191q6.5-64.995,13-130c22.322-132.18,26.609-267.9,51-396q12-81.495,24-163c37.956-191.22,61.364-382.96,107-567,39.473-159.18,67.119-320.58,113-475,39.439-132.74,70.272-267.22,111-398,112.732-361.99,226.448-717.77,368-1052,48.882-115.42,93.676-229.57,143-343,42.85-98.54,93.13-194.99,136-292,23.98-54.25,49.77-108.74,79-159q22.995-45,46-90,56.49-40.5,113-81c89.89-63.225,182.48-122.709,278-181,289.53-176.676,611.3-330.826,964-442,124.5-39.244,252.7-71.986,385-105,128.97-32.181,264.32-44.155,404-68L3513,3Z"/>
  <path id="eyes" class="cls-2" d="M3362,3163c455.54-6.86,730.09,267.96,856,591,81.96,210.28,68.86,520.13-11,721-101.69,255.78-290.46,450.22-562,536-46.89,14.81-96.9,21.52-150,31q-37.5,2.505-75,5c-36.52,6.09-95.13-2.07-126-8-111.83-21.47-202.58-45.77-285-94-224.45-131.35-373.05-315.52-450-595-27.74-100.77-45.5-253.62-23-376,10.44-56.77,18.07-111.17,34-162,86.76-276.79,264.53-487.21,524-591,53.43-21.37,110.64-34.88,173-48Q3314.49,3168.005,3362,3163Zm3127,0c452.68-6.89,740.4,279.34,857,608,74.4,209.69,73.97,485.31-6,690-102.17,261.53-288.01,461.81-564,549-43.13,13.62-88.87,20.87-137,30l-65,6c-45.45,7.58-104.24,1.38-144-6-112.16-20.81-203.72-42.85-286-91-231.79-135.64-369.59-302.8-454-586-27.39-91.88-48.8-257.51-28-375,11.07-62.54,18.68-121.73,36-177,88.4-282.04,269.06-488.46,534-594,52.07-20.74,108.39-32.25,169-45Z"/>
</svg>
