<svg xmlns="http://www.w3.org/2000/svg" width="2389" height="1000" viewBox="0 0 2389 1000">
  <metadata><?xpacket begin="﻿" id="W5M0MpCehiHzreSzNTczkc9d"?>
<x:xmpmeta xmlns:x="adobe:ns:meta/" x:xmptk="Adobe XMP Core 5.6-c138 79.159824, 2016/09/14-01:09:01        ">
   <rdf:RDF xmlns:rdf="http://www.w3.org/1999/02/22-rdf-syntax-ns#">
      <rdf:Description rdf:about=""/>
   </rdf:RDF>
</x:xmpmeta>
                                                                                                    
                                                                                                    
                                                                                                    
                                                                                                    
                                                                                                    
                                                                                                    
                                                                                                    
                                                                                                    
                                                                                                    
                                                                                                    
                                                                                                    
                                                                                                    
                                                                                                    
                                                                                                    
                                                                                                    
                                                                                                    
                                                                                                    
                                                                                                    
                                                                                                    
                                                                                                    
                           
<?xpacket end="w"?></metadata>
<defs>
    <style>
      .cls-1 {
        fill: red;
      }

      .cls-1, .cls-2 {
        fill-rule: evenodd;
      }

      .cls-2 {
        fill: #fff;
      }
    </style>
  </defs>
  <path id="red" class="cls-1" d="M1668,3.133l84.81,0.57,49.11,0.57,60.97,1,21.41,0.285,69.39,1.851,32.84,0.854,24.98,0.854,80.81,3.56,16.56,0.712,64.39,3.987,16.85,1.709c11.75,1.989,23.25,2.829,33.98,5.554,24.83,6.307,45.77,15.9,63.96,28.767,5.39,3.81,10.2,8.325,15.28,12.39a99.561,99.561,0,0,1,14.85,14.241,192.528,192.528,0,0,1,13.84,18.513c20.25,32.245,30.78,72.7,39.41,116.634q0.7,6.621,1.43,13.244,2.415,23.709,4.85,47.422,0.645,8.474,1.29,16.947,1.635,22,3.28,44.005l0.57,12.247q0.855,16.518,1.71,33.039,0.15,5.981.29,11.962,0.36,15.308.71,30.618,0.075,41.082.15,82.171v48.419q-0.15,12.6-.29,25.206-0.495,17.018-1,34.036c-0.09,3.418-.19,6.836-0.28,10.254q-0.93,16.3-1.86,32.612-0.36,6.763-.71,13.528-1.785,22.428-3.57,44.859-0.57,7.191-1.15,14.384c-3.05,18.635-2.39,38.384-6.28,56.252-2.45,11.272-4.09,22.625-7.28,33.323-3.93,13.186-7.26,26.338-12.13,38.593-6.49,16.31-13.54,32.151-22.99,45.572a163.741,163.741,0,0,1-45.97,43.292,205.706,205.706,0,0,1-51.97,23.213c-7.49,2.225-15.52,3.4-23.56,4.984q-16.695,1.923-33.41,3.845l-14.42,1-19.99,1.282-21.98,1.281-29.99,1.567-73.67,3.133-75.81,2.421-86.09,1.994-94.23,1.281-46.83.428-24.27.142-25.84-.142-90.09-1.14-124.64-2.421-62.1-1.566-24.42-.57-74.95-2.848-18.99-.712-16.85-.855-48.68-3.275c-26.32-4.257-54.44-5.522-77.96-12.532-29.95-8.926-50.36-19.943-71.81-37.026-39.86-31.743-55.877-88.677-67.676-148.391q-2.784-25.917-5.568-51.837-2.5-31.755-5-63.515-0.642-10.751-1.285-21.5-1-23.281-2-46.568-0.213-8.472-.428-16.946-0.072-10.822-.143-21.647-0.07-34.745-.142-69.5,0.071-27.2.142-54.4,0.143-10.823.286-21.646,0.143-8.474.285-16.947,1.428-30.687,2.856-61.379,0.57-8.685,1.142-17.374,2.142-26.414,4.283-52.834,2.712-25.488,5.425-50.982c5.684-28.6,11.756-55.226,21.419-79.465,3.38-8.485,6.42-17.042,10.85-24.637,4.7-8.069,9.09-16.106,14.56-23.355,19.75-26.159,52.52-48.536,87.52-59.527,11.63-3.653,24.1-5.571,37.26-7.975l26.56-2.848,31.98-2.136,40.55-2.278,45.54-2.136,55.82-2.136,66.68-1.994,85.23-1.851,116.22-1.424Z"/>
  <path id="Tube" class="cls-2" d="M1471.87,309.906a33.684,33.684,0,0,0,9.82-24.548q0-14.9-9.82-24.887a32.82,32.82,0,0,0-24.37-9.989q-26.07,0-77.34-3.724-51.285-3.723-77.34-3.725-20.31,0-61.6.847t-61.6.846q-21,0-54.84-4.063-42.315-5.412-54.15-6.095-15.915-1.016-26.06,10.835a36.8,36.8,0,0,0-8.8,24.379q0,26.411,27.41,33.521,42.315,10.84,116.44,10.835l30.8-.338q1,41.315,9.14,136.116,7.77,87.7,7.78,136.116,0,16.935,2.2,50.112t2.2,49.774a102.918,102.918,0,0,1-1.69,15.236,101.579,101.579,0,0,0-1.69,15.237q0,14.9,10.83,24.379t24.37,9.481q19.965,0,29.44-22.347,7.44-16.587,7.45-39.616,0-12.191-2.37-36.23t-2.37-35.891q0-54.171-7.45-152.03-8.115-104.959-9.13-151.692h24.03q26.4-.333,77.17,3.386,52.11,4.063,77.17,4.064A32.8,32.8,0,0,0,1471.87,309.906Zm176.48,111.906q0.675-14.221-9.14-23.7t-24.37-9.48q-29.115,0-32.83,31.151-6.435,53.837-6.43,126.973l0.67,65.688,0.34,68.735q-50.43,14.562-95.78,14.56a74.538,74.538,0,0,1-21.33-3.217,113.483,113.483,0,0,1-22-9.311q-7.44-24.379-11.17-64.672t-3.72-96.839q0-17.943,4.91-52.144,4.89-34.2,4.9-49.773,0-14.555-9.81-23.871t-24.37-9.312q-27.42,0-32.16,29.458-10.155,59.257-10.15,105.642,0,70.09,13.2,159.818,6.09,41.647,38.25,63.317,29.1,19.634,73.45,19.639,55.155,0,97.47-22.009,7.11,32.164,33.17,32.167a33.645,33.645,0,0,0,24.04-9.311q9.81-9.318,9.81-23.871,0-7.444-1.18-22.686-1.2-15.237-1.19-22.686,0-24.38-.34-73.137t-0.33-73.137Zm308.14,286.114q49.755-53.837,49.76-131.037,0-76.516-42.65-129-45.36-55.869-118.13-55.868-23.355,0-49.92,9.988t-56.02,29.966l0.68-86.342,1.01-74.153a82.074,82.074,0,0,1,1.7-13.882,83.912,83.912,0,0,0,1.69-13.883q0-29.457-25.39-29.458-19.635,0-30.8,20.655-8.46,16.252-8.46,36.568,0,25.062-.34,93.961t-0.34,93.622q0,35.894,1.87,107.5,1.845,71.613,1.86,107.505,0,8.808-.85,26.072t-0.84,26.072q0,13.546,8.96,22.516a29.73,29.73,0,0,0,21.84,8.973q15.555,0,26.4-16.252,42.3,20.315,94.09,20.315Q1906.74,761.763,1956.49,707.926Zm-37.23-215.347q25.38,33.863,25.38,84.31,0,51.472-31.47,86-31.485,34.537-80.56,34.537-26.07,0-47.05-6.433-29.445-11.508-45.69-18.962l-0.34-55.53-0.34-52.821,0.68-58.577q34.53-25.728,48.74-33.521,29.1-15.57,56.86-15.576,46.365,0,73.79,36.569h0Zm373.47,247.514q60.585-27.086,60.58-64.672,0-11.849-9.3-20.824-9.315-8.967-21.16-8.972-13.2,0-24.71,18.115t-51.44,29.288q-31.485,8.809-54.84,8.8-37.56,0-65.83-14.221t-47.22-42.325L2208.11,584q54.825-25.728,71.76-37.923,38.235-27.759,38.24-61.624,0-48.417-43.66-71.783-35.535-18.959-91.73-18.961-77.5,0-123.88,65.01-42.645,59.6-42.64,147.628,0,76.185,51.78,118.509,47.385,38.259,123.88,38.262,49.08,0,100.87-23.025h0ZM2264.3,481.744q-26.07,22.014-87.33,51.8l-103.91,49.435q13.53-64.327,40.96-96.331,27.405-32,68.7-32,52.47,0,81.58,27.088h0Z"/>
  <path id="You" class="cls-2" d="M412.175,266.735q0-14.9-10.662-24.379a35.449,35.449,0,0,0-24.2-9.481q-22,0-31.477,23.025-23.355,48.757-36.555,72.121L231.77,516.958Q195.215,468.2,184.046,440.1q-14.216-35.552-39.6-77.2-11.511-19.3-47.386-72.459L69.982,248.451q-11.169-15.912-27.755-15.914-13.541,0-24.2,9.988A32.333,32.333,0,0,0,7.365,267.073a37.373,37.373,0,0,0,5.077,18.285q8.456,15.237,57.2,88.373,35.539,53.505,50.771,91.76,17.936,45.036,78.525,123.249l-41.632,76.185q-31.819,60.613-31.816,72.121a31.563,31.563,0,0,0,10.831,24.379q10.828,9.816,24.031,9.819,18.952,0,30.124-19.639l17.939-36.568,42.309-75.507Q280.5,578.924,314.357,498l58.217-143.9q13.533-26.743,21.662-39.616,17.935-32.164,17.939-47.742h0Zm175.8,440.514Q626.22,654.1,627.238,578.921q1.015-70.422-26.739-120.54-34.865-61.963-102.556-61.964-84.621,0-132,68.736-40.617,58.241-38.586,134.761,2.364,78.9,48.063,125.619,40.949,41.982,97.818,41.986,71.41,0,114.741-60.27h0ZM564.283,596.528q-1.7,48.425-30.462,76.862-25.386,25.736-60.586,25.733-30.13,0-52.463-22.686-26.742-27.426-26.739-76.523t22-87.358q27.75-47.742,77.51-47.4,75.472,0.34,70.74,131.375h0ZM937.67,421.812q0.674-14.221-9.139-23.7t-24.37-9.48q-29.114,0-32.831,31.151Q864.9,473.618,864.9,546.754l0.677,65.688,0.338,68.735q-50.437,14.562-95.787,14.56A74.509,74.509,0,0,1,748.8,692.52a113.276,113.276,0,0,1-22-9.311q-7.449-24.379-11.17-64.672T711.91,521.7q0-17.943,4.908-52.144t4.908-49.773q0-14.555-9.816-23.871T687.54,386.6q-27.415,0-32.154,29.458Q645.231,475.314,645.232,521.7q0,70.09,13.2,159.818,6.093,41.647,38.247,63.317,29.106,19.634,73.448,19.639,55.166,0,97.479-22.009,7.109,32.164,33.17,32.167a33.625,33.625,0,0,0,24.032-9.311q9.813-9.318,9.815-23.871,0-7.444-1.184-22.686t-1.185-22.686q0-24.38-.338-73.137T931.577,549.8Z"/>
</svg>
